<?xml version="1.0" encoding="UTF-8"?><svg id="a" xmlns="http://www.w3.org/2000/svg" viewBox="0 0 550.97 61.11"><path d="M79.14,11.98v12.73h-2.23v-12.73h-3.9v-1.98h10.03v1.98h-3.9Z" style="fill:#fff; stroke-width:0px;"/><path d="M88.28,24.71v-14.71h8.54v1.98h-6.3v4.3h5.69v1.94h-5.69v4.51h6.3v1.98h-8.54Z" style="fill:#fff; stroke-width:0px;"/><path d="M112.9,24.71h-2.59l-3.08-5.73h-.25l-3.06,5.73h-2.44l4.28-7.5-4.09-7.21h2.61l2.85,5.37h.25l2.93-5.37h2.42l-4.13,7.17,4.3,7.54Z" style="fill:#fff; stroke-width:0px;"/><path d="M126.28,24.71l-1.14-4.07h-4.95l-1.14,4.07h-2.19l4.4-14.71h2.85l4.43,14.71h-2.25ZM123.25,14.17l-.46-2.15h-.27l-.46,2.15-1.31,4.64h3.88l-1.37-4.64Z" style="fill:#fff; stroke-width:0px;"/><path d="M137.73,24.96c-1.1,0-2.05-.21-2.86-.62-.81-.42-1.5-1.02-2.08-1.81l1.54-1.42c.44.6.93,1.06,1.5,1.38.56.32,1.2.48,1.92.48,1.74,0,2.61-.8,2.61-2.39,0-.64-.15-1.13-.46-1.48-.31-.34-.84-.6-1.6-.79l-1.2-.25c-1.32-.3-2.29-.77-2.92-1.42s-.94-1.57-.94-2.75c0-1.36.41-2.4,1.23-3.1.82-.7,1.97-1.06,3.45-1.06,1.05,0,1.94.18,2.67.54.72.36,1.35.92,1.89,1.68l-1.54,1.35c-.38-.53-.8-.93-1.28-1.19-.47-.26-1.06-.4-1.78-.4-.8,0-1.4.16-1.8.49-.4.33-.6.87-.6,1.62,0,.61.16,1.08.47,1.39s.83.55,1.55.72l1.2.27c.7.15,1.3.35,1.79.58s.9.52,1.21.85c.32.34.54.73.69,1.19.14.46.21.99.21,1.59,0,1.48-.43,2.6-1.28,3.37s-2.05,1.15-3.59,1.15Z" style="fill:#fff; stroke-width:0px;"/><path d="M147.74,19.4v-2.21h5.31v2.21h-5.31Z" style="fill:#fff; stroke-width:0px;"/><path d="M169.04,15.65l.15-2.51h-.25l-1.01,2.47-2.87,5.99-2.85-5.99-1.01-2.42h-.25l.15,2.47v9.06h-2.15v-14.71h2.63l2.38,5.14,1.03,2.91h.19l1.03-2.91,2.36-5.14h2.61v14.71h-2.15v-9.06Z" style="fill:#fff; stroke-width:0px;"/><path d="M177.58,24.71v-14.71h8.54v1.98h-6.3v4.3h5.69v1.94h-5.69v4.51h6.3v1.98h-8.54Z" style="fill:#fff; stroke-width:0px;"/><path d="M202.2,24.71h-2.59l-3.08-5.73h-.25l-3.06,5.73h-2.44l4.28-7.5-4.09-7.21h2.61l2.85,5.37h.25l2.93-5.37h2.42l-4.13,7.17,4.3,7.54Z" style="fill:#fff; stroke-width:0px;"/><path d="M206.77,24.71v-1.79h1.79v-11.13h-1.79v-1.79h5.82v1.79h-1.79v11.13h1.79v1.79h-5.82Z" style="fill:#fff; stroke-width:0px;"/><path d="M223.4,24.96c-.86,0-1.63-.14-2.31-.43-.68-.29-1.26-.74-1.75-1.36-.48-.62-.86-1.41-1.12-2.37-.26-.96-.39-2.11-.39-3.45s.13-2.48.39-3.45c.26-.96.63-1.75,1.12-2.37s1.07-1.07,1.75-1.36c.68-.29,1.45-.43,2.31-.43,1.25,0,2.25.27,3,.82.75.55,1.35,1.36,1.8,2.45l-1.9,1.05c-.25-.83-.61-1.43-1.06-1.79-.46-.37-1.07-.55-1.84-.55-1,0-1.77.34-2.33,1.03-.56.69-.83,1.63-.83,2.83v3.53c0,1.2.28,2.15.83,2.83s1.33,1.03,2.33,1.03c.79,0,1.42-.2,1.91-.59.48-.39.86-1.03,1.13-1.9l1.85,1.1c-.46,1.08-1.08,1.92-1.85,2.5-.77.58-1.78.87-3.03.87Z" style="fill:#fff; stroke-width:0px;"/><path d="M238.76,24.96c-.88,0-1.68-.14-2.38-.43-.7-.29-1.3-.74-1.8-1.36-.5-.62-.88-1.41-1.14-2.37-.26-.96-.39-2.11-.39-3.45s.13-2.48.39-3.45c.26-.96.64-1.75,1.14-2.37s1.1-1.07,1.8-1.36c.7-.29,1.5-.43,2.38-.43s1.68.14,2.38.43c.7.29,1.3.74,1.8,1.36.5.62.88,1.41,1.14,2.37.26.96.39,2.11.39,3.45s-.13,2.48-.39,3.45c-.26.96-.64,1.75-1.14,2.37-.5.62-1.1,1.07-1.8,1.36-.7.29-1.5.43-2.38.43ZM238.76,22.98c1.05,0,1.87-.34,2.44-1.02.58-.68.86-1.63.86-2.83v-3.54c0-1.21-.29-2.15-.86-2.83-.58-.68-1.39-1.02-2.44-1.02s-1.87.34-2.44,1.02c-.58.68-.86,1.63-.86,2.83v3.54c0,1.21.29,2.15.86,2.83.58.68,1.39,1.02,2.44,1.02Z" style="fill:#fff; stroke-width:0px;"/><path d="M72.82,37.06h5.96c1.14,0,2,.32,2.59.97.59.65.89,1.59.89,2.83,0,.94-.2,1.68-.61,2.22-.41.54-.99.84-1.75.91v.25c.42,0,.8.08,1.15.24s.64.39.9.68.45.64.59,1.05.21.85.21,1.32c0,.63-.08,1.21-.24,1.72-.16.52-.39.96-.69,1.33-.3.37-.65.66-1.06.86-.41.2-.87.3-1.38.3h-6.55v-14.71ZM75.05,43.32h3.31c.49,0,.87-.13,1.14-.39.27-.26.4-.68.4-1.27v-.95c0-.59-.13-1.02-.4-1.27-.27-.26-.65-.39-1.14-.39h-3.31v4.28ZM75.05,49.79h3.67c.53,0,.94-.14,1.22-.43.28-.29.42-.74.42-1.37v-.96c0-.63-.14-1.08-.42-1.37-.28-.29-.69-.43-1.22-.43h-3.67v4.55Z" style="fill:#fff; stroke-width:0px;"/><path d="M93.58,52.02c-.89,0-1.68-.14-2.38-.43-.7-.29-1.3-.74-1.8-1.36-.5-.62-.88-1.41-1.14-2.37-.26-.96-.39-2.11-.39-3.45s.13-2.48.39-3.45c.26-.96.64-1.75,1.14-2.37.5-.62,1.1-1.07,1.8-1.36.7-.29,1.5-.43,2.38-.43s1.68.14,2.38.43,1.3.74,1.8,1.36c.5.62.88,1.41,1.14,2.37.26.96.39,2.11.39,3.45s-.13,2.48-.39,3.45c-.26.96-.64,1.75-1.14,2.37-.5.62-1.1,1.07-1.8,1.36-.7.29-1.5.43-2.38.43ZM93.58,50.04c1.05,0,1.87-.34,2.44-1.02.58-.68.86-1.63.86-2.83v-3.54c0-1.21-.29-2.15-.86-2.83-.58-.68-1.39-1.02-2.44-1.02s-1.87.34-2.44,1.02c-.58.68-.86,1.63-.86,2.83v3.54c0,1.21.29,2.15.86,2.83.58.68,1.39,1.02,2.44,1.02Z" style="fill:#fff; stroke-width:0px;"/><path d="M107.32,51.77h-2.23v-14.71h5.82c1.26,0,2.22.38,2.86,1.13.64.75.96,1.83.96,3.23,0,1.14-.21,2.06-.63,2.76s-1.05,1.17-1.9,1.41l2.8,6.18h-2.49l-2.55-6.01h-2.63v6.01ZM110.71,43.89c.53,0,.94-.14,1.21-.41.27-.27.41-.72.41-1.33v-1.36c0-.62-.14-1.06-.41-1.33-.27-.27-.68-.41-1.21-.41h-3.39v4.85h3.39Z" style="fill:#fff; stroke-width:0px;"/><path d="M120.72,37.06h4.85c.87,0,1.65.14,2.33.42.68.28,1.26.72,1.73,1.32.47.6.83,1.36,1.07,2.29.25.93.37,2.04.37,3.33s-.12,2.4-.37,3.33c-.25.93-.6,1.69-1.07,2.29-.47.6-1.05,1.04-1.73,1.32s-1.46.42-2.33.42h-4.85v-14.71ZM125.57,49.79c.97,0,1.73-.31,2.28-.93.55-.62.82-1.54.82-2.74v-3.4c0-1.2-.27-2.12-.82-2.74-.55-.62-1.31-.93-2.28-.93h-2.61v10.75h2.61Z" style="fill:#fff; stroke-width:0px;"/><path d="M136.86,51.77v-14.71h8.54v1.98h-6.3v4.3h5.69v1.94h-5.69v4.51h6.3v1.98h-8.54Z" style="fill:#fff; stroke-width:0px;"/><path d="M153.53,51.77h-2.23v-14.71h5.82c1.26,0,2.22.38,2.86,1.13.64.75.96,1.83.96,3.23,0,1.14-.21,2.06-.63,2.76s-1.05,1.17-1.9,1.41l2.8,6.18h-2.49l-2.55-6.01h-2.63v6.01ZM156.93,43.89c.53,0,.94-.14,1.21-.41.27-.27.41-.72.41-1.33v-1.36c0-.62-.14-1.06-.41-1.33-.27-.27-.68-.41-1.21-.41h-3.39v4.85h3.39Z" style="fill:#fff; stroke-width:0px;"/><path d="M179.46,39.04v12.73h-2.23v-12.73h-3.9v-1.98h10.03v1.98h-3.9Z" style="fill:#fff; stroke-width:0px;"/><path d="M190.84,51.77h-2.23v-14.71h5.82c1.26,0,2.22.38,2.86,1.13.64.75.96,1.83.96,3.23,0,1.14-.21,2.06-.63,2.76s-1.05,1.17-1.9,1.41l2.8,6.18h-2.49l-2.55-6.01h-2.63v6.01ZM194.23,43.89c.53,0,.94-.14,1.21-.41.27-.27.41-.72.41-1.33v-1.36c0-.62-.14-1.06-.41-1.33-.27-.27-.68-.41-1.21-.41h-3.39v4.85h3.39Z" style="fill:#fff; stroke-width:0px;"/><path d="M212.48,51.77l-1.14-4.07h-4.95l-1.14,4.07h-2.19l4.4-14.71h2.85l4.43,14.71h-2.25ZM209.45,41.23l-.46-2.15h-.27l-.46,2.15-1.31,4.64h3.88l-1.37-4.64Z" style="fill:#fff; stroke-width:0px;"/><path d="M223.31,42.94l-1.12-2.74h-.27l.17,2.78v8.79h-2.15v-14.71h2.57l4.38,8.83,1.14,2.74h.27l-.17-2.78v-8.79h2.15v14.71h-2.59l-4.38-8.83Z" style="fill:#fff; stroke-width:0px;"/><path d="M240.66,52.02c-1.1,0-2.05-.21-2.86-.62-.81-.42-1.5-1.02-2.08-1.81l1.54-1.42c.44.6.93,1.06,1.5,1.38.56.32,1.2.48,1.92.48,1.74,0,2.61-.8,2.61-2.39,0-.64-.15-1.13-.46-1.48-.31-.34-.84-.6-1.6-.79l-1.2-.25c-1.32-.3-2.29-.77-2.92-1.42s-.94-1.57-.94-2.75c0-1.36.41-2.4,1.23-3.1.82-.7,1.97-1.06,3.45-1.06,1.05,0,1.94.18,2.67.54s1.35.92,1.89,1.68l-1.54,1.35c-.38-.53-.8-.93-1.28-1.19-.47-.26-1.06-.4-1.78-.4-.8,0-1.4.16-1.8.49-.4.33-.6.87-.6,1.62,0,.61.16,1.08.47,1.39s.83.55,1.55.72l1.2.27c.7.15,1.3.35,1.79.58.49.23.9.52,1.21.85.31.34.54.73.68,1.19s.21.99.21,1.59c0,1.48-.43,2.6-1.27,3.37-.85.77-2.05,1.15-3.59,1.15Z" style="fill:#fff; stroke-width:0px;"/><path d="M251.15,51.77v-14.71h5.82c1.26,0,2.22.38,2.86,1.13.64.75.96,1.84.96,3.26s-.32,2.5-.96,3.26c-.64.75-1.59,1.13-2.86,1.13h-3.58v5.94h-2.23ZM253.39,43.85h3.39c.53,0,.94-.14,1.21-.41.27-.27.41-.71.41-1.32v-1.35c0-.6-.14-1.04-.41-1.32-.27-.27-.68-.41-1.21-.41h-3.39v4.81Z" style="fill:#fff; stroke-width:0px;"/><path d="M271.39,52.02c-.88,0-1.68-.14-2.38-.43-.7-.29-1.3-.74-1.8-1.36-.5-.62-.88-1.41-1.14-2.37-.26-.96-.39-2.11-.39-3.45s.13-2.48.39-3.45c.26-.96.64-1.75,1.14-2.37s1.1-1.07,1.8-1.36c.7-.29,1.5-.43,2.38-.43s1.68.14,2.38.43c.7.29,1.3.74,1.8,1.36.5.62.88,1.41,1.14,2.37.26.96.39,2.11.39,3.45s-.13,2.48-.39,3.45c-.26.96-.64,1.75-1.14,2.37-.5.62-1.1,1.07-1.8,1.36-.7.29-1.5.43-2.38.43ZM271.39,50.04c1.05,0,1.87-.34,2.44-1.02.58-.68.86-1.63.86-2.83v-3.54c0-1.21-.29-2.15-.86-2.83-.58-.68-1.39-1.02-2.44-1.02s-1.87.34-2.44,1.02c-.58.68-.86,1.63-.86,2.83v3.54c0,1.21.29,2.15.86,2.83.58.68,1.39,1.02,2.44,1.02Z" style="fill:#fff; stroke-width:0px;"/><path d="M285.13,51.77h-2.23v-14.71h5.82c1.26,0,2.22.38,2.86,1.13.64.75.96,1.83.96,3.23,0,1.14-.21,2.06-.63,2.76s-1.05,1.17-1.9,1.41l2.8,6.18h-2.49l-2.55-6.01h-2.63v6.01ZM288.52,43.89c.53,0,.94-.14,1.21-.41.27-.27.41-.72.41-1.33v-1.36c0-.62-.14-1.06-.41-1.33-.27-.27-.68-.41-1.21-.41h-3.39v4.85h3.39Z" style="fill:#fff; stroke-width:0px;"/><path d="M303.93,39.04v12.73h-2.23v-12.73h-3.9v-1.98h10.03v1.98h-3.9Z" style="fill:#fff; stroke-width:0px;"/><path d="M321.02,51.77l-1.14-4.07h-4.95l-1.14,4.07h-2.19l4.41-14.71h2.84l4.43,14.71h-2.25ZM317.98,41.23l-.46-2.15h-.27l-.46,2.15-1.31,4.64h3.88l-1.37-4.64Z" style="fill:#fff; stroke-width:0px;"/><path d="M333.09,39.04v12.73h-2.23v-12.73h-3.9v-1.98h10.03v1.98h-3.9Z" style="fill:#fff; stroke-width:0px;"/><path d="M341.67,51.77v-1.79h1.79v-11.13h-1.79v-1.79h5.82v1.79h-1.79v11.13h1.79v1.79h-5.82Z" style="fill:#fff; stroke-width:0px;"/><path d="M358.45,52.02c-.88,0-1.68-.14-2.38-.43-.7-.29-1.3-.74-1.8-1.36-.5-.62-.88-1.41-1.14-2.37-.26-.96-.39-2.11-.39-3.45s.13-2.48.39-3.45c.26-.96.64-1.75,1.14-2.37s1.1-1.07,1.8-1.36c.7-.29,1.5-.43,2.38-.43s1.68.14,2.38.43c.7.29,1.3.74,1.8,1.36.5.62.88,1.41,1.14,2.37.26.96.39,2.11.39,3.45s-.13,2.48-.39,3.45c-.26.96-.64,1.75-1.14,2.37-.5.62-1.1,1.07-1.8,1.36-.7.29-1.5.43-2.38.43ZM358.45,50.04c1.05,0,1.87-.34,2.44-1.02.58-.68.86-1.63.86-2.83v-3.54c0-1.21-.29-2.15-.86-2.83-.58-.68-1.39-1.02-2.44-1.02s-1.87.34-2.44,1.02c-.58.68-.86,1.63-.86,2.83v3.54c0,1.21.29,2.15.86,2.83.58.68,1.39,1.02,2.44,1.02Z" style="fill:#fff; stroke-width:0px;"/><path d="M373.33,42.94l-1.12-2.74h-.27l.17,2.78v8.79h-2.15v-14.71h2.57l4.38,8.83,1.14,2.74h.27l-.17-2.78v-8.79h2.15v14.71h-2.59l-4.38-8.83Z" style="fill:#fff; stroke-width:0px;"/><path d="M404.31,42.71l.15-2.51h-.25l-1.01,2.47-2.87,5.99-2.84-5.99-1.01-2.42h-.25l.15,2.47v9.06h-2.15v-14.71h2.63l2.38,5.14,1.03,2.91h.19l1.03-2.91,2.36-5.14h2.61v14.71h-2.15v-9.06Z" style="fill:#fff; stroke-width:0px;"/><path d="M421.08,51.77l-1.14-4.07h-4.95l-1.14,4.07h-2.19l4.41-14.71h2.84l4.43,14.71h-2.25ZM418.05,41.23l-.46-2.15h-.27l-.46,2.15-1.31,4.64h3.88l-1.37-4.64Z" style="fill:#fff; stroke-width:0px;"/><path d="M432.53,52.02c-1.1,0-2.05-.21-2.86-.62-.81-.42-1.5-1.02-2.08-1.81l1.54-1.42c.44.6.93,1.06,1.5,1.38.56.32,1.2.48,1.92.48,1.74,0,2.61-.8,2.61-2.39,0-.64-.15-1.13-.46-1.48-.31-.34-.84-.6-1.6-.79l-1.2-.25c-1.32-.3-2.29-.77-2.92-1.42s-.94-1.57-.94-2.75c0-1.36.41-2.4,1.23-3.1.82-.7,1.97-1.06,3.45-1.06,1.05,0,1.94.18,2.67.54s1.35.92,1.89,1.68l-1.54,1.35c-.38-.53-.8-.93-1.28-1.19-.47-.26-1.06-.4-1.78-.4-.8,0-1.4.16-1.8.49-.4.33-.6.87-.6,1.62,0,.61.16,1.08.47,1.39s.83.55,1.55.72l1.2.27c.7.15,1.3.35,1.79.58.49.23.9.52,1.21.85.32.34.54.73.68,1.19s.21.99.21,1.59c0,1.48-.43,2.6-1.28,3.37-.85.77-2.05,1.15-3.59,1.15Z" style="fill:#fff; stroke-width:0px;"/><path d="M448.48,39.04v12.73h-2.23v-12.73h-3.9v-1.98h10.03v1.98h-3.9Z" style="fill:#fff; stroke-width:0px;"/><path d="M457.63,51.77v-14.71h8.54v1.98h-6.3v4.3h5.69v1.94h-5.69v4.51h6.3v1.98h-8.54Z" style="fill:#fff; stroke-width:0px;"/><path d="M474.3,51.77h-2.23v-14.71h5.82c1.26,0,2.22.38,2.86,1.13.64.75.96,1.83.96,3.23,0,1.14-.21,2.06-.63,2.76s-1.05,1.17-1.9,1.41l2.8,6.18h-2.49l-2.55-6.01h-2.63v6.01ZM477.69,43.89c.53,0,.94-.14,1.21-.41.27-.27.41-.72.41-1.33v-1.36c0-.62-.14-1.06-.41-1.33-.27-.27-.68-.41-1.21-.41h-3.39v4.85h3.39Z" style="fill:#fff; stroke-width:0px;"/><path d="M495.22,51.77v-14.71h5.82c1.26,0,2.22.38,2.86,1.13.64.75.96,1.84.96,3.26s-.32,2.5-.96,3.26c-.64.75-1.59,1.13-2.86,1.13h-3.58v5.94h-2.23ZM497.46,43.85h3.39c.53,0,.94-.14,1.21-.41.27-.27.41-.71.41-1.32v-1.35c0-.6-.14-1.04-.41-1.32-.27-.27-.68-.41-1.21-.41h-3.39v4.81Z" style="fill:#fff; stroke-width:0px;"/><path d="M510.34,51.77v-14.71h2.23v12.73h5.35v1.98h-7.59Z" style="fill:#fff; stroke-width:0px;"/><path d="M531.54,51.77l-1.14-4.07h-4.95l-1.14,4.07h-2.19l4.41-14.71h2.84l4.43,14.71h-2.25ZM528.5,41.23l-.46-2.15h-.27l-.46,2.15-1.31,4.64h3.88l-1.37-4.64Z" style="fill:#fff; stroke-width:0px;"/><path d="M542.37,42.94l-1.12-2.74h-.27l.17,2.78v8.79h-2.15v-14.71h2.57l4.38,8.83,1.14,2.74h.27l-.17-2.78v-8.79h2.15v14.71h-2.59l-4.38-8.83Z" style="fill:#fff; stroke-width:0px;"/><path d="M0,23.86c.38-.46.9-.29,1.37-.29,20.39,0,40.79,0,61.18,0,.29,0,.58.03,1.12.06-2.18,1.61-4.17,3.09-6.18,4.55-5.15,3.76-10.29,7.53-15.46,11.26-3.15,2.28-6.35,4.49-9.38,6.93,0,0,.03.01.03.01-.2.12-.4.25-.6.37-3,2.15-6.01,4.28-9,6.45-3.31,2.4-6.59,4.84-9.88,7.27-.37.27-.73.49-1.19.22,1.84-5.28,3.81-10.5,4.92-16.01.7-3.47,4.76-6.45,8.41-6.67.91-.05.99.31.74,1.05-.47,1.36-.9,2.74-1.07,4.35,5.84-4.23,11.67-8.47,17.84-12.93h-22.02c1.45,1.17,2.74,2.22,4.21,3.42-2.42.95-4.71,1.82-7.11,2.33-.61.13-1.1-.26-1.59-.61-5.27-3.85-10.55-7.68-15.82-11.51-.15-.11-.35-.16-.52-.23" style="fill:#fbfdff; stroke-width:0px;"/><path d="M31.76,0c1.08,3.34,2.16,6.69,3.25,10.03.15.45.37.87.57,1.31v-.03c.01.34,0,.69.31.94.36,2.32,1.44,4.42,2.02,6.68.21.8.16,1.14-.79,1.13-3.6-.04-7.2-.02-10.8-.01-.72,0-1.09-.08-.79-.99,1.99-6.14,3.92-12.3,5.88-18.44.07-.22.24-.41.36-.62" style="fill:#fbfdff; stroke-width:0px;"/><path d="M51.27,61.11c-5.43-3.94-10.87-7.88-16.42-11.9,3.47-2.56,6.83-5.04,10.36-7.64,2.13,6.54,4.23,12.96,6.32,19.39-.09.05-.17.11-.26.16" style="fill:#fbfdff; stroke-width:0px;"/></svg>