<svg version="1.1" id="Layer_1" xmlns="http://www.w3.org/2000/svg" xmlns:xlink="http://www.w3.org/1999/xlink" x="0px" y="0px"
	 viewBox="0 0 517.5030518 88.5851364" style="enable-background:new 0 0 517.5030518 88.5851364;" xml:space="preserve">
<style type="text/css">
	.st0{fill:#FFFFFF;}
</style>
<path class="st0" d="M63.9221878,78.5794525h-4.1191216l3.4492188-14.7559662h-5.9590302l0.7402039-3.1689148h16.0372734
	l-0.740303,3.1689148h-5.9590302L63.9221878,78.5794525z M82.13517,74.6848373
	c-1.76371,3.196312-4.9219208,4.2432175-7.421936,4.2432175c-4.117218,0-6.8535309-1.7959061-5.578125-7.2647324
	c0.375-1.5966034,2.1738281-6.7158279,8.5723419-6.7158279c2.8847122,0,6.5761261,1.25,5.1582184,7.3145294l-0.1445999,0.6250076
	H72.6937256c-0.1230011,0.9990005-0.4277039,3.2471085,2.6758118,3.2471085c1.0703049,0,2.2871094-0.5009995,2.808609-1.4493027
	H82.13517z M79.2972565,70.6145172c0.2813034-2.1474075-1.0781097-2.7959137-2.314415-2.7959137
	c-1.8125076,0-3.0176086,1.0488052-3.6465149,2.7959137H79.2972565z M96.4106293,78.5794525h-4.7520218L90.066803,74.586235
	l-3.4609146,3.9932175h-4.640625l6.5527496-6.7657318l-3.2539291-6.5166245h4.6660156l1.5684128,3.8692169l3.3223114-3.8692169
	h4.5292435l-6.326149,6.5166245L96.4106293,78.5794525z M110.9965973,75.9837418
	c-0.3691025,1.5722046-0.0663986,1.9218063,0.3672028,2.0712128l-0.1230011,0.524498h-4.1465225
	c-0.0741806-0.6240997-0.0820007-0.8243027,0.0117035-1.5733032c-1.0742035,0.8242035-2.564415,1.9219055-5.1738205,1.9219055
	c-2.1992111,0-4.1856232-1.1231079-3.5469208-3.8691177c0.6094055-2.5957108,2.7324142-3.9180145,5.2500229-4.2432175
	l3.572319-0.4746017c0.6191025-0.0752029,1.416008-0.2998047,1.5898056-1.0488052
	c0.3457184-1.4737091-1.1758041-1.547905-2.1640091-1.547905c-1.923912,0-2.5020142,1.0723038-2.7950134,1.847702h-3.7050171
	c1.3886108-4.0704117,4.6269226-4.6446152,7.6210327-4.6446152c2.058609,0,5.6875305,0.5742035,4.9219284,3.8457184
	L110.9965973,75.9837418z M108.139183,72.1126251c-0.4512024,0.2753983-1.1348038,0.4990005-2.7812119,0.7236023
	c-1.4786072,0.2256012-2.736412,0.5508041-3.0723114,1.9990082c-0.2871017,1.2217102,0.6660004,1.5967102,1.410202,1.5967102
	c1.7031097,0,3.6660156-0.9980087,4.0468216-2.6221161L108.139183,72.1126251z M124.1919556,69.3421097
	c0.0332184-0.847702-0.0839005-1.7481079-2.17379-1.7481079c-2.0859299,0-2.5293274,0.7246094-2.6621323,1.2988052
	c-0.4922028,2.0967102,9.0098419,0.5743027,7.8672333,5.4668274c-0.9063034,3.8702164-5.1914215,4.5684204-7.4688339,4.5684204
	c-3.3222122,0-6.6738281-1.0469055-5.9550247-4.5938187h3.9531174c-0.2616959,1.1241074,0.3143997,1.9473038,2.7324142,1.9473038
	c1.9746094,0,2.6465149-0.8721008,2.7617111-1.3730011c0.5215225-2.2198105-8.9336395-0.5489044-7.7715149-5.5176239
	c0.4550858-1.9473114,2.3847885-4.4434204,6.9454117-4.4434204c2.8554153,0,6.1093292,0.6493988,5.5351257,4.3946152H124.1919556z
	 M141.0534363,60.6545715h8.7051392c6.6484222,0,6.8183289,5.1416245,6.0253296,8.5380402
	c-0.898407,3.8457184-3.8691254,9.3868408-10.3808594,9.3868408h-8.5391388L141.0534363,60.6545715z M141.6237335,75.4827423
	h4.0098114c3.3496246,0,5.1953278-3.0694199,5.8847504-6.0156326c1.2343903-5.2930222-1.4394226-5.7168236-3.1953278-5.7168236
	h-3.9551239L141.6237335,75.4827423z M169.7937622,74.6848373c-1.7637024,3.196312-4.9180298,4.2432175-7.4180298,4.2432175
	c-4.1171265,0-6.855423-1.7959061-5.578125-7.2647324c0.3710938-1.5966034,2.1737976-6.7158279,8.574234-6.7158279
	c2.8828125,0,6.5723267,1.25,5.1543274,7.3145294l-0.1464996,0.6250076h-10.0253296
	c-0.1192169,0.9990005-0.4278259,3.2471085,2.6756897,3.2471085c1.0703278,0,2.2852173-0.5009995,2.8106079-1.4493027H169.7937622z
	 M166.9558411,70.6145172c0.285202-2.1474075-1.0780945-2.7959137-2.3104858-2.7959137
	c-1.8125305,0-3.0215302,1.0488052-3.6485291,2.7959137H166.9558411z M177.8035889,67.2200012h0.050827
	c0.9627838-1.0498047,2.3202972-2.2725067,4.9002991-2.2725067c3.2129211,0,5.5430298,2.2481079,4.4707489,6.8418274
	c-0.8535309,3.6446152-3.4824371,7.1387329-7.8222656,7.1387329c-2.6914062,0-3.3437958-1.323204-3.6406097-2.0459061h-0.0567017
	l-1.6014862,6.8652267h-3.8477325l4.3145142-18.4502792h3.6796112L177.8035889,67.2200012z M179.1121979,76.0569458
	c2.4726105,0,3.7324219-2.444313,4.0996246-4.0195236c0.4902039-2.0957108,0.128891-4.0684128-2.316391-4.0684128
	c-2.6348267,0-3.7696381,2.1465073-4.2676392,4.2686157C176.1687927,74.2102356,176.6687927,76.0569458,179.1121979,76.0569458z
	 M200.7176971,75.9837418c-0.3690948,1.5722046-0.0664062,1.9218063,0.3653107,2.0712128l-0.1231079,0.524498h-4.1465149
	c-0.0722046-0.6240997-0.0820007-0.8243027,0.0097961-1.5733032c-1.0684052,0.8242035-2.5644073,1.9219055-5.1699219,1.9219055
	c-2.1992188,0-4.1875153-1.1231079-3.5449219-3.8691177c0.6054077-2.5957108,2.730423-3.9180145,5.2480316-4.2432175
	l3.5703125-0.4746017c0.625-0.0752029,1.4179993-0.2998047,1.5918274-1.0488052
	c0.3456879-1.4737091-1.175827-1.547905-2.1660156-1.547905c-1.9219208,0-2.5019989,1.0723038-2.7910004,1.847702h-3.7110291
	c1.3925934-4.0704117,4.6290283-4.6446152,7.6231232-4.6446152c2.0605011,0,5.6875153,0.5742035,4.9258118,3.8457184
	L200.7176971,75.9837418z M197.8563843,72.1126251c-0.4472961,0.2753983-1.1288757,0.4990005-2.7773132,0.7236023
	c-1.4785767,0.2256012-2.7344055,0.5508041-3.0743103,1.9990082c-0.2871094,1.2217102,0.6699982,1.5967102,1.4122009,1.5967102
	c1.7031097,0,3.6660156-0.9980087,4.042923-2.6221161L197.8563843,72.1126251z M206.5654297,65.2970963h3.6816101
	l-0.5390015,2.2969055h0.0547028c1.113205-1.3476028,2.2949066-2.6465073,4.6289215-2.6465073
	c0.2460938,0,0.4862976,0.0243988,0.7304077,0.0488968l-0.8281097,3.546814
	c-0.3202972-0.0487976-0.7304993-0.0487976-1.0879059-0.0487976c-2.992218,0-3.9414215,1.696312-4.2832184,3.1689148
	l-1.6191101,6.9161301h-3.843811L206.5654297,65.2970963z M222.0811005,65.2970963h2.3906097l-0.5839081,2.4971085h-2.3887177
	l-1.6874847,7.2149353c-0.179718,0.7743988-0.2246094,1.0742035,1.3417969,1.0742035
	c0.2460938,0,0.5292969-0.0263977,0.8065948-0.0508041l-0.6172028,2.6474152
	c-0.6092987,0.024498-1.2226105,0.0488968-1.8241882,0.0488968h-0.4941254c-3.3223114,0-3.6582184-1.1484985-3.2578125-2.871109
	l1.8867188-8.0635376h-1.9785156l0.5839996-2.4971085h1.9785156l0.8417969-3.5957184h3.8437195L222.0811005,65.2970963z
	 M244.6534882,78.5794525h-3.8437805l1.8867798-8.064537c0.4589081-1.9717102-0.3516083-2.6221085-1.4766083-2.6221085
	c-1.9238129,0-2.8770142,1.1485062-3.2441864,2.7217102l-1.8613281,7.9649353h-3.8476257l1.871109-7.9912338
	c0.2617035-1.121109,0.6289062-2.6954117-1.6797028-2.6954117c-1.8106079,0-2.6582184,1.1485062-2.9942169,2.5977097
	l-1.8925018,8.0889359h-3.8437958l3.105484-13.2823563h3.6816101L230.057724,67.2444h0.0547028
	c0.699234-0.8721008,2.1015167-2.2969055,4.6836243-2.2969055c2.113205,0,2.9121094,0.7002029,3.5683136,2.1221085
	c0.6446075-0.648407,2.0625153-2.1221085,4.3965149-2.1221085c2.8516235,0,4.7227325,1.5235062,4.0391235,4.4434204
	L244.6534882,78.5794525z M261.5734558,74.6848373c-1.7636719,3.196312-4.9179993,4.2432175-7.4180145,4.2432175
	c-4.1211243,0-6.8574371-1.7959061-5.5800323-7.2647324c0.3730011-1.5966034,2.1757202-6.7158279,8.5742493-6.7158279
	c2.8847046,0,6.5742188,1.25,5.1543274,7.3145294l-0.1446228,0.6250076h-10.0253296
	c-0.1231079,0.9990005-0.4278107,3.2471085,2.6757355,3.2471085c1.070282,0,2.2851715-0.5009995,2.8105927-1.4493027H261.5734558z
	 M258.7355652,70.6145172c0.2812805-2.1474075-1.078125-2.7959137-2.3125305-2.7959137
	c-1.8143921,0-3.0195007,1.0488052-3.648407,2.7959137H258.7355652z M276.536438,78.5794525h-3.843811l1.8868103-8.064537
	c0.2265015-0.9736023,0.5546875-2.6221085-1.8868103-2.6221085c-1.7050171,0-3.2675171,1.0498047-3.7421265,3.071312
	l-1.7792969,7.6153336h-3.843811l3.1054993-13.2823563h3.679718L269.6575012,67.2444h0.054718
	c0.7070007-0.7987976,2.156189-2.2969055,4.9316406-2.2969055c2.8554688,0,4.7245789,1.5235062,4.0410156,4.4434204
	L276.536438,78.5794525z M286.919281,65.2970963h2.3887024l-0.5820618,2.4971085h-2.3886414l-1.6875,7.2149353
	c-0.1817017,0.7743988-0.2246094,1.0742035,1.3417969,1.0742035c0.2460938,0,0.5253906-0.0263977,0.8066101-0.0508041
	l-0.617218,2.6474152c-0.6092834,0.024498-1.2207031,0.0488968-1.8241882,0.0488968h-0.4941101
	c-3.3223267,0-3.6602173-1.1484985-3.257782-2.871109l1.8866882-8.0635376h-1.9785156l0.5838928-2.4971085h1.9766235
	l0.8437805-3.5957184h3.8437195L286.919281,65.2970963z M302.7103577,78.9280548
	c-3.929718,0-6.9570312-2.1953125-5.8359375-6.9883347c1.1191101-4.7949142,5.1758423-6.9922256,9.1035767-6.9922256
	c3.9296875,0,6.9551086,2.1973114,5.8340149,6.9922256C310.6908875,76.7327423,306.6361694,78.9280548,302.7103577,78.9280548z
	 M305.2884521,67.892807c-2.9648132,0-4.0624695,2.3457108-4.4588928,4.0469131
	c-0.3965149,1.696312-0.3965149,4.0440216,2.5664368,4.0440216c2.9667664,0,4.0663757-2.3477097,4.4628906-4.0440216
	C308.2552795,70.2385178,308.2552795,67.892807,305.2884521,67.892807z M317.3471069,78.5794525h-3.843689l2.5195007-10.7852478
	h-2.1133118l0.5820923-2.4971085h2.1152039l0.2500305-1.0742035c0.6425781-2.7451172,2.5351868-3.7939224,5.1719055-3.7939224
	c1.1269226,0,1.6426086,0.0263023,1.9648132,0.0508003l-0.6582031,2.8212128h-1.0722046
	c-1.3184204,0-1.4317017,0.3741035-1.6895142,1.4717064l-0.1229858,0.5244064h2.5l-0.5840149,2.4971085h-2.4981079
	L317.3471069,78.5794525z M338.2457275,78.5794525h-4.1211243l3.4512024-14.7559662h-5.9610291l0.742218-3.1689148h16.0391846
	l-0.7402954,3.1689148h-5.960968L338.2457275,78.5794525z M346.6246643,65.2970963h3.679718l-0.539093,2.2969055h0.0546875
	c1.1133118-1.3476028,2.2949219-2.6465073,4.6309204-2.6465073c0.2461243,0,0.4863281,0.0243988,0.7285156,0.0488968
	l-0.828186,3.546814c-0.3203125-0.0487976-0.7304077-0.0487976-1.0878296-0.0487976
	c-2.9942017,0-3.9375,1.696312-4.2852173,3.1689148l-1.6152039,6.9161301h-3.8457336L346.6246643,65.2970963z
	 M366.6149597,75.9837418c-0.3652039,1.5722046-0.0625,1.9218063,0.3692017,2.0712128l-0.1231079,0.524498h-4.148407
	c-0.0722961-0.6240997-0.0820923-0.8243027,0.0116882-1.5733032c-1.0722961,0.8242035-2.5625,1.9219055-5.1737976,1.9219055
	c-2.1953125,0-4.1856384-1.1231079-3.5430298-3.8691177c0.6073914-2.5957108,2.7285156-3.9180145,5.2500305-4.2432175
	l3.5703125-0.4746017c0.6210938-0.0752029,1.4160156-0.2998047,1.5899048-1.0488052
	c0.3457031-1.4737091-1.1738892-1.547905-2.164093-1.547905c-1.921936,0-2.5020142,1.0723038-2.7949219,1.847702h-3.7071228
	c1.3926086-4.0704117,4.6289368-4.6446152,7.6231384-4.6446152c2.0585938,0,5.6875305,0.5742035,4.9219055,3.8457184
	L366.6149597,75.9837418z M363.7575684,72.1126251c-0.4453125,0.2753983-1.1309204,0.4990005-2.7773132,0.7236023
	c-1.4805298,0.2256012-2.7383118,0.5508041-3.0762329,1.9990082c-0.2851868,1.2217102,0.6719055,1.5967102,1.4140015,1.5967102
	c1.7032166,0,3.6661377-0.9980087,4.0430298-2.6221161L363.7575684,72.1126251z M382.5974426,78.5794525h-3.8437195
	l1.8828125-8.064537c0.2284851-0.9736023,0.5585938-2.6221085-1.8828125-2.6221085
	c-1.7030945,0-3.2676086,1.0498047-3.7402039,3.071312l-1.781311,7.6153336h-3.8437195l3.1054077-13.2823563h3.6778259
	L375.7185059,67.2444h0.0546875c0.7071228-0.7987976,2.156311-2.2969055,4.9297485-2.2969055
	c2.8573914,0,4.7246094,1.5235062,4.0410156,4.4434204L382.5974426,78.5794525z M395.9881897,69.3421097
	c0.0350952-0.847702-0.0839844-1.7481079-2.1738892-1.7481079c-2.085907,0-2.5293274,0.7246094-2.664032,1.2988052
	c-0.4882812,2.0967102,9.0097351,0.5743027,7.8672485,5.4668274c-0.9042969,3.8702164-5.1875305,4.5684204-7.4668274,4.5684204
	c-3.3223267,0-6.6758423-1.0469055-5.9551392-4.5938187h3.953125c-0.2617188,1.1241074,0.3144836,1.9473038,2.7324219,1.9473038
	c1.976593,0,2.6464844-0.8721008,2.7637024-1.3730011c0.5195007-2.2198105-8.9355469-0.5489044-7.7734375-5.5176239
	c0.4570007-1.9473114,2.3867188-4.4434204,6.9414368-4.4434204c2.8573914,0,6.1113281,0.6493988,5.5410156,4.3946152H395.9881897z
	 M407.0331421,67.2200012h0.054718c0.9570007-1.0498047,2.3143921-2.2725067,4.8965149-2.2725067
	c3.2129211,0,5.5429077,2.2481079,4.4687195,6.8418274c-0.851593,3.6446152-3.4824219,7.1387329-7.820343,7.1387329
	c-2.6914062,0-3.3417969-1.323204-3.640625-2.0459061h-0.0546875l-1.6074219,6.8652267h-3.843811l4.3145142-18.4502792h3.679718
	L407.0331421,67.2200012z M408.3417664,76.0569458c2.4725952,0,3.7323914-2.444313,4.0996094-4.0195236
	c0.4883118-2.0957108,0.125-4.0684128-2.3184204-4.0684128c-2.6367188,0-3.7695007,2.1465073-4.265625,4.2686157
	C405.3964539,74.2102356,405.8983459,76.0569458,408.3417664,76.0569458z M424.0371399,78.9280548
	c-3.9258423,0-6.9531555-2.1953125-5.8320312-6.9883347c1.1191101-4.7949142,5.1757202-6.9922256,9.1035461-6.9922256
	c3.9258118,0,6.9551086,2.1973114,5.8340149,6.9922256C432.0215759,76.7327423,427.9668579,78.9280548,424.0371399,78.9280548z
	 M426.6191406,67.892807c-2.9668274,0-4.0644226,2.3457108-4.4609375,4.0469131
	c-0.3983765,1.696312-0.3964844,4.0440216,2.5683289,4.0440216c2.9667969,0,4.0625-2.3477097,4.4629211-4.0440216
	C429.5859375,70.2385178,429.5859375,67.892807,426.6191406,67.892807z M436.7558899,65.2970963h3.679718l-0.5351257,2.2969055
	h0.054718c1.109314-1.3476028,2.2929077-2.6465073,4.6250305-2.6465073c0.25,0,0.4902039,0.0243988,0.7303772,0.0488968
	l-0.8280945,3.546814c-0.3164062-0.0487976-0.7304993-0.0487976-1.085907-0.0487976
	c-2.9942017,0-3.9395142,1.696312-4.2852173,3.1689148l-1.617218,6.9161301h-3.8457031L436.7558899,65.2970963z
	 M452.2696533,65.2970963h2.390625l-0.5820312,2.4971085h-2.3905945l-1.6875,7.2149353
	c-0.179718,0.7743988-0.2207031,1.0742035,1.343689,1.0742035c0.2460938,0,0.5274048-0.0263977,0.8067017-0.0508041
	l-0.6192017,2.6474152c-0.6092834,0.024498-1.218689,0.0488968-1.8241882,0.0488968h-0.4941101
	c-3.3223267,0-3.6582336-1.1484985-3.2539062-2.871109l1.8847046-8.0635376h-1.9785156l0.5840149-2.4971085h1.9784851
	l0.8399048-3.5957184h3.8437195L452.2696533,65.2970963z M466.3908081,75.9837418
	c-0.3690796,1.5722046-0.0682983,1.9218063,0.3633118,2.0712128l-0.1231079,0.524498h-4.1445007
	c-0.0742188-0.6240997-0.0820007-0.8243027,0.0097961-1.5733032c-1.0723267,0.8242035-2.5645142,1.9219055-5.1738281,1.9219055
	c-2.1954041,0-4.1856079-1.1231079-3.5430298-3.8691177c0.6074219-2.5957108,2.7285156-3.9180145,5.2500305-4.2432175
	l3.5683289-0.4746017c0.6231079-0.0752029,1.4161072-0.2998047,1.5917969-1.0488052
	c0.343811-1.4737091-1.1756897-1.547905-2.1640015-1.547905c-1.9239197,0-2.5039062,1.0723038-2.7930298,1.847702h-3.7090149
	c1.3926086-4.0704117,4.6289368-4.6446152,7.6231384-4.6446152c2.0605164,0,5.6875305,0.5742035,4.921814,3.8457184
	L466.3908081,75.9837418z M463.5295105,72.1126251c-0.4472961,0.2753983-1.1309204,0.4990005-2.7774048,0.7236023
	c-1.4785156,0.2256012-2.7363281,0.5508041-3.0761414,1.9990082c-0.2870789,1.2217102,0.6699219,1.5967102,1.414032,1.5967102
	c1.7012024,0,3.664093-0.9980087,4.0429993-2.6221161L463.5295105,72.1126251z M476.5764771,65.2970963h2.3886108
	l-0.5820312,2.4971085h-2.3887024l-1.6875,7.2149353c-0.1835938,0.7743988-0.2246094,1.0742035,1.3399048,1.0742035
	c0.2479858,0,0.5292969-0.0263977,0.8085938-0.0508041l-0.6210938,2.6474152
	c-0.6054993,0.024498-1.2167969,0.0488968-1.8222961,0.0488968h-0.492218c-3.3262024,0-3.6601257-1.1484985-3.2578125-2.871109
	l1.8847961-8.0635376h-1.976593l0.5840149-2.4971085h1.976593l0.8398132-3.5957184h3.8457031L476.5764771,65.2970963z
	 M485.3088989,65.2970963l-3.1054993,13.2823563h-3.8437195l3.1054077-13.2823563H485.3088989z M485.678009,63.7248878h-3.8457336
	l0.7598267-3.2451172h3.8437195L485.678009,63.7248878z M492.3636475,78.9280548
	c-3.9258423,0-6.9532471-2.1953125-5.8340454-6.9883347c1.1211243-4.7949142,5.1777344-6.9922256,9.1055603-6.9922256
	c3.9256897,0,6.9550171,2.1973114,5.8339233,6.9922256C500.3479614,76.7327423,496.2933655,78.9280548,492.3636475,78.9280548z
	 M494.9456482,67.892807c-2.9648132,0-4.0625305,2.3457108-4.4590149,4.0469131
	c-0.3965149,1.696312-0.3965149,4.0440216,2.5664062,4.0440216c2.9667969,0,4.0664062-2.3477097,4.4629211-4.0440216
	C497.9124451,70.2385178,497.9124451,67.892807,494.9456482,67.892807z M515.2133179,78.5794525h-3.8457031l1.8867188-8.064537
	c0.2285156-0.9736023,0.5585938-2.6221085-1.8867188-2.6221085c-1.7032166,0-3.2676086,1.0498047-3.7403259,3.071312
	l-1.7772827,7.6153336h-3.8477173l3.1075134-13.2823563h3.6795959L508.3323975,67.2444h0.0585938
	c0.7070312-0.7987976,2.156311-2.2969055,4.9297485-2.2969055c2.8555298,0,4.7246094,1.5235062,4.0410156,4.4434204
	L515.2133179,78.5794525z M27.9959908,46.0091362L0,88.5851364h24.1993675l27.9959908-42.5760002H27.9959908L27.9959908,46.0091362z
	 M118.4211884,13.1858673h-1.4546814v-0.8972197h3.9767227v0.8972197h-1.454689v3.9558887h-1.0673523V13.1858673z
	 M121.4994049,12.2886477h1.5024185l1.1348648,3.3374701h0.0139008l1.0739746-3.3374701h1.5023499v4.8531084h-0.9991226v-3.4394436
	h-0.0139008l-1.1892395,3.4394436h-0.8229828l-1.1891708-3.4053392h-0.0139008v3.4053392h-0.9991913V12.2886477z
	 M75.518486,25.5441418H13.4344873l-2.6047993,3.6357441h64.6009521h0.0008316l1.5750961-2.3081856L75.518486,25.5441418z
	 M68.3689194,19.1658955H18.0031872l-2.6047993,3.6357422h57.0459404L68.3689194,19.1658955z M1.6936972,41.9370842h65.0324173
	l2.4810104-3.635788H4.2972121L1.6936972,41.9370842z M6.2623553,35.5580902h64.8167267l2.4805145-3.6350384H8.8645449
	L6.2623553,35.5580902z M66.0999908,17.1417561l10.9065781,9.729948L65.6259232,43.5493584l18.967247-10.1920853
	l11.8547211,10.1920853V26.8717041l18.0177536-9.729948H95.4997482V0L83.1709595,17.1417561H66.0999908L66.0999908,17.1417561z"/>
</svg>
